<?xml version="1.0" standalone="no"?>
<!DOCTYPE svg PUBLIC "-//W3C//DTD SVG 20010904//EN"
 "http://www.w3.org/TR/2001/REC-SVG-20010904/DTD/svg10.dtd">
<svg version="1.0" xmlns="http://www.w3.org/2000/svg"
 width="800.000000pt" height="800.000000pt" viewBox="0 0 800.000000 800.000000"
 preserveAspectRatio="xMidYMid meet">

<g transform="translate(0.000000,800.000000) scale(0.100000,-0.100000)"
fill="#323b4c" stroke="none">
<path d="M2937 7649 c-144 -19 -302 -103 -449 -239 -43 -39 -145 -146 -226
-238 -282 -316 -341 -359 -734 -538 -298 -136 -371 -176 -481 -263 -84 -67
-120 -110 -170 -201 -79 -143 -99 -239 -157 -720 -42 -349 -70 -429 -283 -793
-60 -104 -126 -226 -147 -270 -87 -185 -117 -364 -86 -516 34 -165 79 -263
309 -659 142 -246 177 -371 222 -797 53 -495 140 -682 395 -848 104 -67 177
-104 412 -208 370 -163 432 -209 719 -531 242 -271 369 -376 530 -438 169 -65
319 -62 671 11 496 104 580 104 1074 1 316 -67 445 -74 597 -36 193 49 331
155 606 463 280 314 341 358 729 536 293 133 374 176 478 258 119 93 187 195
243 362 30 89 46 190 91 565 42 349 70 429 283 793 129 223 176 320 213 442
24 78 27 107 27 215 0 200 -42 315 -240 657 -213 364 -241 444 -283 793 -11
96 -30 243 -41 325 -44 329 -148 514 -369 658 -104 67 -177 104 -412 208 -370
163 -428 206 -718 529 -250 279 -369 377 -531 440 -169 65 -319 62 -671 -11
-496 -104 -580 -104 -1073 -1 -289 60 -382 69 -528 51z m193 -2748 c323 -97
559 -336 653 -661 18 -63 22 -101 22 -240 0 -139 -4 -177 -22 -240 -94 -325
-330 -564 -653 -661 -73 -23 -87 -23 -627 -27 l-553 -3 0 75 0 76 463 0 c256
0 500 5 547 10 189 23 332 92 466 225 78 78 97 104 142 195 61 125 84 219 84
350 0 131 -23 225 -84 350 -45 91 -64 117 -142 195 -134 133 -277 202 -466
225 -47 5 -291 10 -547 10 l-463 0 0 76 0 75 553 -3 c540 -4 554 -4 627 -27z
m2920 -45 l0 -75 -517 -4 c-593 -5 -592 -5 -763 -89 -91 -45 -117 -64 -196
-142 -78 -79 -97 -105 -142 -196 -62 -124 -84 -218 -84 -350 0 -132 22 -226
84 -350 45 -91 64 -117 142 -196 79 -78 105 -97 196 -142 171 -84 170 -84 763
-89 l517 -4 0 -75 0 -75 -552 3 c-532 4 -556 5 -623 25 -268 82 -474 253 -590
488 -74 153 -90 223 -90 415 0 142 3 176 23 245 101 350 393 616 740 675 26 4
282 8 570 9 l522 1 0 -74z"/>
</g>
</svg>
